PathFileType	4	(X/Y/Z)	D:\TRACE\spot_10-12-23\spot_arm_motion_1_5-platform.trc
DataRate	CameraRate	NumFrames	NumMarkers	Units	OrigDataRate	OrigDataStartFrame	OrigNumFrames
100.00	100.00	      72	5	mm	100.00	2626	      7000
Frame#	Time	Left_Front			Right_Front			Left_Aft			Right_Aft			Post			
		X1	Y1	Z1	X2	Y2	Z2	X3	Y3	Z3	X4	Y4	Z4	X5	Y5	Z5	

2626	26.250	-830.62952	-18.78704	-647.02777	741.88104	-14.24625	-640.22516	-747.86688	22.03476	490.16724	669.99048	29.06966	575.82770	-47.35736	706.94427	-991.99249	
2627	26.260	-830.69916	-18.88563	-647.10138	741.81738	-14.31929	-640.18127	-747.94623	22.03579	490.28775	669.81848	29.10895	575.84717	-47.47451	706.81000	-992.08496	
2628	26.270	-830.71783	-18.98952	-647.11713	741.72534	-14.34173	-640.19366	-747.96796	22.06406	490.23761	669.62219	29.17759	575.86084	-47.60975	706.69092	-992.19598	
2629	26.280	-830.87750	-19.09049	-647.08350	741.68280	-14.42767	-640.22217	-748.02484	22.13548	490.24170	669.54480	29.27351	575.80603	-47.67053	706.55334	-992.35791	
2630	26.290	-830.91608	-19.17753	-647.09662	741.61621	-14.46974	-640.24023	-748.07544	22.16836	490.24469	669.47144	29.33701	575.82892	-47.64204	706.42108	-992.47766	
2631	26.300	-830.88007	-19.31710	-647.09503	741.60999	-14.55918	-640.25165	-748.13751	22.23081	490.21573	669.45074	29.41929	575.82196	-47.52443	706.30994	-992.61078	
2632	26.310	-830.88214	-19.41157	-647.13385	741.57623	-14.59297	-640.27142	-748.06250	22.20385	490.16815	669.43054	29.46062	575.79810	-47.38837	706.18109	-992.72467	
2633	26.320	-830.73077	-19.53701	-647.13104	741.57581	-14.64641	-640.25775	-748.08429	22.27349	490.18500	669.43915	29.48997	575.77789	-47.39257	706.10175	-992.85834	
2634	26.330	-830.64020	-19.69413	-647.16766	741.58984	-14.67434	-640.28491	-748.01764	22.25642	490.15787	669.45508	29.57043	575.80450	-47.30871	705.98480	-992.93091	
2635	26.340	-830.73444	-19.64397	-647.10193	741.58185	-14.72425	-640.26086	-748.06384	22.33716	490.16519	669.39587	29.59333	575.80054	-47.75475	706.14191	-992.96368	
2636	26.350	-830.72906	-19.71859	-647.12976	741.57117	-14.80651	-640.29694	-748.06799	22.34941	490.20114	669.37201	29.62006	575.82715	-47.52716	705.94128	-993.00616	
2637	26.360	-830.65680	-19.81003	-647.16364	741.52625	-14.82540	-640.31677	-748.06122	22.42446	490.18942	669.34021	29.64104	575.83289	-47.53565	705.83063	-992.99664	
2638	26.370	-830.68414	-19.75730	-647.15405	741.58600	-14.85327	-640.30890	-748.01086	22.41268	490.14297	669.34198	29.68410	575.82764	-47.57833	705.84381	-992.92462	
2639	26.380	-830.65649	-19.81466	-647.22302	741.59106	-14.89877	-640.35645	-748.04852	22.47896	490.12103	669.30011	29.68853	575.85870	-47.46983	705.61938	-992.96692	
2640	26.390	-830.78540	-19.64635	-647.21289	741.66492	-14.95267	-640.36682	-747.91931	22.47333	490.11432	669.27814	29.69119	575.83179	-47.46135	705.59009	-992.96826	
2641	26.400	-830.75397	-19.60151	-647.20398	741.79333	-15.03718	-640.40356	-747.81842	22.52647	490.10364	669.30695	29.56537	575.81250	-47.39294	705.55713	-992.98383	
2642	26.410	-830.51489	-19.69135	-647.24664	742.02991	-15.06920	-640.37213	-747.47467	22.59837	490.16696	670.19965	30.15394	575.66486	-47.21004	705.48285	-992.97675	
2643	26.420	-830.22095	-19.65698	-647.25720	742.27710	-15.12059	-640.27087	-747.09430	22.68578	490.21463	669.92639	29.72534	575.89203	-46.98630	705.37683	-993.03473	
2644	26.430	-829.97668	-19.64418	-647.17981	742.71875	-15.19909	-640.16559	-746.90527	22.70524	490.17902	670.11511	29.73522	575.91803	-46.62360	705.31836	-993.14026	
2645	26.440	-829.81848	-19.61104	-647.22192	742.95398	-15.22842	-640.31342	-746.71405	22.77341	490.14941	670.15430	29.53359	575.79468	-45.18667	704.64606	-993.93353	
2646	26.450	-829.63977	-19.55418	-647.22693	743.27899	-15.34058	-640.32739	-746.46130	22.74737	490.08707	671.06793	30.28359	575.55200	-46.05402	705.04388	-993.50781	
2647	26.460	-829.58789	-19.64637	-647.17249	743.62311	-15.40313	-640.27551	-746.24310	22.72897	490.04340	671.17932	30.26343	575.59418	-45.82270	705.02606	-993.67554	
2648	26.470	-829.26630	-19.59819	-647.19342	743.83972	-15.40975	-640.29468	-746.00922	22.76159	490.05066	671.43414	30.30360	575.60931	-45.52413	705.00458	-993.82904	
2649	26.480	-828.80951	-19.71709	-647.30646	744.21735	-15.44226	-640.24066	-745.78894	22.80779	490.10245	671.68677	30.37699	575.67816	-45.30122	705.05383	-993.88177	
2650	26.490	-828.12531	-19.98441	-647.40808	744.41687	-15.46130	-640.31738	-745.20160	22.78714	490.06461	672.24860	30.47268	575.72815	-44.92570	705.05151	-993.86469	
2651	26.500	-827.56543	-20.16188	-647.44208	744.74573	-15.40207	-640.26624	-744.70441	22.77418	490.16324	672.89056	30.47687	575.76929	-44.79747	705.09607	-993.62006	
2652	26.510	-827.29352	-19.96564	-647.25684	745.20148	-15.32063	-640.26221	-744.51251	22.81305	490.08026	673.29535	30.39523	575.72473	-44.00422	705.06470	-993.71399	
2653	26.520	-826.94958	-20.00730	-647.27661	745.77448	-15.32547	-640.31030	-744.12756	22.80558	490.01022	673.55292	30.33239	575.71478	-43.38451	705.08978	-993.51294	
2654	26.530	-826.73938	-19.82525	-647.24359	746.02643	-15.26760	-640.45361	-743.69727	22.80658	490.00330	673.81146	30.31940	575.70996	-43.03504	705.09644	-993.50940	
2655	26.540	-826.32770	-19.73000	-647.21259	746.23944	-15.22615	-640.49146	-743.36676	22.90480	490.04691	674.13434	30.30482	575.66241	-42.77784	705.11182	-993.43695	
2656	26.550	-825.80243	-19.64341	-647.31415	746.51251	-15.29450	-640.50348	-742.82886	22.79385	490.01501	674.67816	30.31356	575.68243	-42.40235	705.20178	-993.40924	
2657	26.560	-825.75208	-19.52715	-647.24316	746.97546	-15.26194	-640.49615	-742.37256	22.71196	489.94354	675.16846	30.34843	575.73486	-42.05144	705.23669	-993.32593	
2658	26.570	-825.13696	-19.61197	-647.30884	747.60858	-15.18261	-640.44788	-742.05096	22.65282	489.77170	675.60034	30.31497	575.84265	-41.63888	705.24292	-993.37036	
2659	26.580	-824.36041	-19.82008	-647.31415	748.23383	-15.09743	-640.49408	-741.46130	22.59146	489.97223	675.93494	30.24065	575.91760	-41.41847	705.28882	-993.32996	
2660	26.590	-823.68109	-19.92312	-647.22546	748.72327	-15.01886	-640.37128	-741.04352	22.57224	490.09183	676.34796	30.08956	575.90686	-40.68818	705.37775	-993.23419	
2661	26.600	-823.37311	-19.62907	-647.20679	749.15887	-14.93159	-640.27454	-740.50885	22.51626	490.25494	676.72266	29.94981	575.92194	-39.94682	705.47327	-993.18170	
2662	26.610	-822.96631	-19.52732	-647.20221	749.63165	-14.94768	-640.26031	-739.99878	22.43471	490.26315	677.27966	29.94881	575.86841	-39.27028	705.56598	-993.09442	
2663	26.620	-822.31915	-19.43963	-647.19153	750.26605	-14.89278	-640.24438	-739.49377	22.37138	490.25229	677.89832	29.93640	575.87976	-38.81128	705.79608	-992.96637	
2664	26.630	-822.07861	-19.33430	-647.12787	750.99298	-14.87068	-640.14130	-738.82007	22.38419	490.24612	678.49097	29.95244	575.86279	-38.47226	705.96796	-992.91974	
2665	26.640	-821.42023	-19.26992	-647.23407	751.49829	-14.73055	-640.10870	-738.48309	22.45194	490.20374	678.96783	29.90683	575.86829	-38.08621	706.16406	-992.92603	
2666	26.650	-820.78125	-19.25822	-647.17651	751.74658	-14.69347	-640.11035	-737.91425	22.35706	490.25476	679.68787	29.68449	575.86560	-37.74349	706.30945	-992.90192	
2667	26.660	-820.00317	-19.45315	-647.08484	752.32654	-14.64541	-640.17908	-737.45990	22.40431	490.17844	680.19720	29.66343	575.90405	-37.11739	706.41254	-992.61041	
2668	26.670	-819.55621	-19.28982	-647.10858	752.82300	-14.40096	-640.40009	-736.70374	22.25348	490.26212	680.58649	29.65661	575.99347	-36.49368	706.46918	-992.37561	
2669	26.680	-818.93378	-18.99148	-647.05554	753.35144	-14.20866	-640.28741	-736.10217	22.07531	490.26056	681.21295	29.58294	576.09540	-35.77118	706.61676	-992.29114	
2670	26.690	-818.51935	-18.81443	-646.98041	754.20135	-14.04790	-640.21906	-735.26202	21.97432	490.36014	682.00024	29.56200	576.13104	-35.19908	706.87579	-992.23914	
2671	26.700	-817.91473	-18.69541	-647.04285	754.98395	-13.95716	-640.13464	-734.90643	21.92278	490.13321	682.65881	29.41194	576.05347	-34.65543	707.13440	-992.18066	
2672	26.710	-817.28033	-18.57312	-646.99310	755.47589	-13.90722	-640.04999	-734.17499	21.77979	490.45587	683.25177	29.36006	576.02576	-33.98743	707.31696	-992.09851	
2673	26.720	-816.45831	-18.47616	-646.92474	755.98596	-13.81116	-639.96906	-733.66571	21.79267	490.45316	683.76917	29.33234	576.07397	-33.09191	707.37421	-991.86096	
2674	26.730	-815.99408	-18.11614	-646.95502	756.66449	-13.66870	-639.81854	-732.91791	21.75258	490.44247	684.60840	29.35384	576.17273	-32.51468	707.59198	-991.63416	
2675	26.740	-815.31470	-17.77993	-646.82703	757.55731	-13.49166	-639.90900	-732.36188	21.59996	490.42218	685.30151	29.25421	576.28601	-32.05993	707.77582	-991.43640	
2676	26.750	-814.75586	-17.85315	-646.92596	758.24536	-13.41344	-639.89020	-731.54877	21.41767	490.56705	685.85291	29.00210	576.33698	-31.40196	707.94788	-991.15900	
2677	26.760	-813.95245	-17.80442	-646.84747	758.72742	-13.15894	-639.91931	-730.88361	21.35242	490.73572	686.48853	28.91936	576.23517	-30.34120	708.13336	-990.85443	
2678	26.770	-813.13879	-17.63702	-646.93903	759.59308	-13.04156	-639.91772	-730.29907	21.21872	490.75903	687.25922	28.93361	576.29425	-29.77394	708.43402	-990.64661	
2679	26.780	-812.55298	-17.38200	-646.85834	760.26495	-13.02573	-639.98389	-729.32251	21.03113	490.76343	688.08759	28.70482	576.35260	-29.11826	708.83325	-990.55267	
2680	26.790	-811.75183	-17.26002	-646.83423	760.86798	-12.96676	-639.89709	-728.73773	21.01053	490.62314	688.67834	28.47128	576.35126	-28.62883	708.99792	-990.39838	
2681	26.800	-811.49316	-16.91224	-646.74670	761.69092	-12.74730	-639.61798	-728.05487	20.83008	490.65118	689.34235	28.40220	576.34888	-27.95609	709.15735	-990.12836	
2682	26.810	-810.38452	-16.91087	-646.69031	762.64966	-12.32855	-639.58948	-727.37775	20.80700	490.77704	690.18677	28.28798	576.42383	-26.99661	709.44049	-989.77362	
2683	26.820	-809.22461	-16.87831	-646.88385	763.32373	-12.21217	-639.68536	-726.53436	20.69923	490.82166	690.86835	28.09076	576.60510	-26.03329	709.74841	-989.75061	
2684	26.830	-808.70624	-16.60806	-646.61157	763.94336	-12.03131	-639.78033	-725.65063	20.63830	490.82309	691.54907	27.89022	576.67047	-25.33379	709.94037	-989.67822	
2685	26.840	-807.91748	-16.54918	-646.56720	764.57501	-11.86779	-639.76990	-724.99432	20.47916	490.91357	692.29620	27.73680	576.69434	-24.82231	710.13647	-989.57251	
2686	26.850	-807.16925	-16.28468	-646.60522	765.37354	-11.62270	-639.65808	-724.39868	20.37931	490.82040	693.11029	27.50423	576.68970	-23.76412	710.50665	-989.11798	
2687	26.860	-806.57745	-15.91793	-646.57794	766.19775	-11.40114	-639.61798	-723.43085	20.17728	491.06494	694.04053	27.34697	576.71521	-22.85863	711.07141	-988.76642	
2688	26.870	-805.38605	-16.16332	-646.53455	767.29010	-11.05713	-639.41296	-722.70355	20.14426	490.92294	694.85419	27.25090	576.68298	-22.35572	711.41052	-988.64160	
2689	26.880	-804.60138	-15.78791	-646.29803	768.05200	-10.94732	-639.32324	-721.92755	20.02434	491.24557	695.39636	27.06206	576.78265	-21.64075	711.63824	-988.35779	
2690	26.890	-803.78076	-15.42072	-646.41443	768.58600	-10.74405	-639.44897	-720.88776	19.78901	491.22394	696.42749	26.92073	577.00006	-20.53998	711.92731	-987.83197	
2691	26.900	-803.14191	-15.27336	-646.32751	769.47974	-10.50258	-639.53204	-720.11633	19.39601	491.20459	697.26569	26.83844	577.08588	-19.92286	712.27283	-987.47113	
2692	26.910	-802.37598	-15.00678	-646.20380	770.39948	-10.13524	-639.44330	-719.34052	19.40445	491.18875	698.09918	26.55136	577.04785	-19.22236	712.70227	-987.26782	
2693	26.920	-801.36084	-14.73997	-646.20166	771.06940	-9.97077	-639.37695	-718.56128	19.36495	491.27448	698.94855	26.42944	577.04987	-18.12352	713.21722	-986.79407	
2694	26.930	-800.62122	-14.19791	-646.21082	772.12164	-9.64794	-639.19934	-717.72137	19.16088	491.24710	700.04889	26.26713	577.20203	-17.31380	713.78766	-986.54279	
2695	26.940	-800.03168	-13.83611	-646.07104	773.04761	-9.32247	-639.15558	-716.70093	18.95273	491.35291	700.62122	25.97562	577.36615	-16.39306	713.85718	-986.22614	
2696	26.950	-798.89203	-13.85705	-646.10852	773.90356	-9.12533	-639.32758	-715.93866	18.75387	491.46521	701.30170	25.84699	577.35864	-15.33392	714.41394	-985.95380	
2697	26.960	-797.87750	-13.52092	-646.15906	774.62445	-8.86105	-639.01257	-714.98889	18.44611	491.64017	702.60529	25.66414	577.55005	-14.56894	714.69690	-985.68011	
